HIERARCHY
ROOT Hips
{
  OFFSET 0 0 0
  CHANNELS 6 Xposition Yposition Zposition Zrotation Yrotation Xrotation
  JOINT LeftThigh
  {
    OFFSET 8.409438 0 -5.917753
    CHANNELS 3 Zrotation Yrotation Xrotation
    JOINT LeftLeg
    {
      OFFSET 0 0 -42.358652
      CHANNELS 3 Zrotation Yrotation Xrotation
      JOINT LeftFoot
      {
        OFFSET 0 0 -39.357303
        CHANNELS 3 Zrotation Yrotation Xrotation
      }
    }
  }
  JOINT RightThigh
  {
    OFFSET -8.409438 0 -5.917753
    CHANNELS 3 Zrotation Yrotation Xrotation
    JOINT RightLeg
    {
      OFFSET 0 0 -42.358652
      CHANNELS 3 Zrotation Yrotation Xrotation
      JOINT RightFoot
      {
        OFFSET 0 0 -39.357303
        CHANNELS 3 Zrotation Yrotation Xrotation
      }
    }
  }
  JOINT SpineLow
  {
    OFFSET 0 0 4.719101
    CHANNELS 3 Zrotation Yrotation Xrotation
    JOINT SpineMid
    {
      OFFSET 0 0 12.899191
      CHANNELS 3 Zrotation Yrotation Xrotation
      JOINT Chest
      {
        OFFSET 0 0 12.899191
        CHANNELS 3 Zrotation Yrotation Xrotation
        JOINT LeftShoulder
        {
          OFFSET 7.550562 1.41573 9.438202
          CHANNELS 3 Zrotation Yrotation Xrotation
          JOINT LeftArm
          {
            OFFSET 9.155056 0 4.247191
            CHANNELS 3 Zrotation Yrotation Xrotation
            JOINT LeftForearm
            {
              OFFSET 0 0 25.771955
              CHANNELS 3 Zrotation Yrotation Xrotation
              JOINT LeftHand
              {
                OFFSET 0 0 25.197169
                CHANNELS 3 Zrotation Yrotation Xrotation
              }
            }
          }
        }
        JOINT RightShoulder
        {
          OFFSET -7.550562 1.41573 9.438202
          CHANNELS 3 Zrotation Yrotation Xrotation
          JOINT RightArm
          {
            OFFSET -9.155056 0 4.247191
            CHANNELS 3 Zrotation Yrotation Xrotation
            JOINT RightForearm
            {
              OFFSET 0 0 -25.771955
              CHANNELS 3 Zrotation Yrotation Xrotation
              JOINT RightHand
              {
                OFFSET 0 0 -25.197169
                CHANNELS 3 Zrotation Yrotation Xrotation
              }
            }
          }
        }
        JOINT Neck
        {
          OFFSET 0 0 15.101124
          CHANNELS 3 Zrotation Yrotation Xrotation
          JOINT Head
          {
            OFFSET 0 0 11.325843
            CHANNELS 3 Zrotation Yrotation Xrotation
            End Site
            {
              OFFSET 0 0 14.157303
            }
          }
        }
      }
    }
  }
}
MOTION
Frames: 8
Frame Time: 0.0
0.0  89.887642  0.0  0.420997  -39.201213  -99.283196  20.723712  -41.689788  -8.376446  9.319477  30.343302  51.258365  5.103557  9.592734  1.689461  -1.355245  11.44221  -14.404937  19.858793  6.566618  37.617883  -0.03521  3.384833  1.961788  1.525786  0.669145  0.909265  4.195993  1.770549  2.527017  4.195993  1.770548  2.527017  -24.391891  20.368946  7.221904  -107.715036  52.9764  -95.601658  -38.645324  -13.496122  75.53956  77.560991  0.973949  19.766598  -15.298234  1.907831  18.443365  160.096534  30.911634  60.261826  -34.296705  -11.621481  -64.850216  92.791874  -2.491072  -28.711674  -15.080755  -3.243689  9.501283  -11.260359  -2.669922  7.049049  
0.0  89.887642  0.0  -0.015672  -38.915362  -98.933698  20.661388  -42.23321  -8.902053  9.354924  30.173162  51.255786  5.583931  9.739427  2.012357  -0.154377  11.224015  -14.635478  19.193756  6.038613  38.750784  -0.204753  3.25969  2.05477  1.397865  0.600077  0.863193  3.842468  1.589492  2.393654  3.842468  1.589493  2.393654  -24.225181  21.294019  7.302804  -105.706725  53.130541  -94.362075  -38.665552  -13.357637  75.349927  77.275692  0.662483  19.850697  -15.191967  2.025655  18.592491  159.358688  30.880622  59.833977  -34.077263  -11.317813  -65.047724  93.764734  -1.792954  -29.097324  -14.704595  -2.952733  9.730069  -10.982317  -2.451103  7.229821  
0.0  89.887642  0.0  -0.46561  -38.769978  -98.645379  21.037698  -42.708156  -9.339733  9.191623  29.961879  51.12772  6.06131  9.806674  2.29933  0.660908  10.920632  -14.85066  18.708332  5.640648  39.718187  -0.069547  3.229225  2.120216  1.358396  0.520298  0.811791  3.730522  1.375893  2.247664  3.730522  1.375892  2.247664  -24.242761  22.139315  7.63588  -104.188123  53.076865  -93.489384  -38.742671  -13.124878  75.187757  77.040877  0.393407  19.966418  -15.447972  2.256533  18.932175  158.587791  30.978509  59.452007  -33.63579  -11.569431  -65.248137  94.831591  -0.8759  -29.739093  -14.59711  -2.681676  9.968149  -10.905562  -2.251615  7.415695  
0.0  89.887642  0.0  -0.755799  -38.75967  -98.42568  21.829758  -43.102539  -9.866961  8.939876  29.77895  51.041627  6.493463  9.853818  2.501729  0.92777  10.668458  -15.189516  18.545515  5.338087  40.553538  -0.087942  3.105486  2.147901  1.416366  0.457259  0.753734  3.885714  1.205106  2.086432  3.885713  1.205106  2.086432  -24.530123  22.77705  8.128537  -103.353245  52.777005  -93.148225  -38.815533  -12.842936  75.071361  76.9707  0.232614  20.100003  -16.067996  2.52762  19.390411  157.83028  31.145812  59.169987  -33.142112  -12.204145  -65.446471  95.837832  0.001059  -30.634272  -14.792271  -2.470224  10.196009  -11.054957  -2.101661  7.5913  
0.0  89.887642  0.0  -0.84264  -38.853398  -98.276773  22.851134  -43.351939  -10.340383  8.6703  29.579324  50.861889  6.993135  9.917923  2.699092  0.793816  10.518807  -15.698396  18.652875  4.937167  41.346735  -0.151647  3.048633  2.184464  1.549506  0.432019  0.712684  4.248114  1.134556  1.974985  4.248114  1.134556  1.974984  -25.016049  23.05106  8.609997  -103.229851  52.273909  -93.32913  -38.885093  -12.5691  75.01793  77.078073  0.182823  20.18663  -16.907092  2.656236  19.743117  157.094409  31.243599  58.946316  -32.750858  -12.83891  -65.699334  96.529711  0.669532  -31.722329  -15.206149  -2.38737  10.340994  -11.366465  -2.050092  7.700872  
0.0  89.887642  0.0  -0.748449  -38.999474  -98.249982  23.772122  -43.451922  -10.687434  8.548416  29.26188  50.669826  7.474377  10.012165  2.978752  0.16815  10.416351  -16.304029  19.151646  4.533209  42.087365  -0.202233  3.04228  2.200092  1.698931  0.454209  0.719356  4.657363  1.190187  1.997271  4.657363  1.190187  1.997271  -25.493028  22.84697  8.881193  -103.714007  51.681458  -93.991962  -38.963051  -12.298918  75.053142  77.306733  0.21111  20.115855  -17.65546  2.55393  19.851692  156.499905  31.209856  58.819962  -32.523317  -13.434535  -65.875934  96.86848  1.195251  -32.654145  -15.637699  -2.469953  10.349728  -11.68865  -2.119723  7.703868  
0.0  89.887642  0.0  -0.515862  -39.149458  -98.323856  24.547099  -43.38717  -10.873835  8.684772  28.788271  50.562436  7.730517  9.987361  3.219601  -0.962962  10.322833  -16.900317  20.072283  4.179577  42.67695  0.104735  3.147611  2.189406  1.835201  0.505294  0.77341  5.032529  1.321426  2.151238  5.032529  1.321426  2.151238  -25.889033  22.328548  8.869787  -104.676569  51.107025  -95.000795  -39.089242  -12.060606  75.190479  77.558904  0.251473  19.846464  -18.184267  2.314949  19.743046  156.142928  31.065075  58.873514  -32.558566  -13.916089  -66.024244  96.861416  1.467936  -33.287177  -15.973953  -2.6463  10.219661  -11.938086  -2.254479  7.600357  
0.0  89.887642  0.0  -0.247744  -39.319281  -98.46649  25.138704  -43.247922  -10.865209  8.851521  28.217577  50.402437  7.8029  9.885613  3.46333  -2.344677  10.16537  -17.335109  21.120084  4.004748  43.008283  0.095307  3.10356  2.220687  1.883372  0.553381  0.827076  5.167008  1.446968  2.302575  5.167008  1.446968  2.302575  -25.793995  21.852306  8.789184  -105.690438  50.618564  -96.090528  -39.283444  -11.815099  75.365298  77.719567  0.231664  19.467328  -18.064106  2.194788  19.650945  156.080574  30.8629  59.042444  -32.839222  -14.292236  -66.048258  96.616896  1.574816  -33.497747  -15.999363  -2.768436  10.107203  -11.955322  -2.343645  7.512533  
